<svg width="118" height="118" viewBox="0 0 118 118" fill="none" xmlns="http://www.w3.org/2000/svg">
<g clip-path="url(#clip0)">
<path d="M56.9433 64.5237C53.8819 65.4207 50.8204 66.3291 47.7589 67.2146C47.3892 67.3181 47.0196 67.4101 46.6383 67.4561C44.4086 67.6746 42.5833 68.4796 40.7464 69.9286C37.142 72.7576 35.825 76.4835 35.178 80.727C34.5311 84.9589 32.209 88.2479 28.6507 90.7088C29.3901 89.6049 30.1873 88.5469 30.8573 87.4084C32.6595 84.3839 33.318 81.049 33.8264 77.599C34.1152 75.667 35.1434 73.8386 35.9058 71.9871C36.6914 70.0896 37.5925 68.2381 38.355 66.3291C39.3139 63.9602 41.2663 62.6952 43.4498 61.7752C47.551 60.0387 51.6984 58.4517 55.8227 56.7843C59.0113 55.4848 64.0945 56.0138 65.9082 58.2563C68.2996 61.2117 68.4729 63.1552 65.5039 65.6047C61.9341 68.5371 58.7224 71.9181 55.4415 75.184C54.3209 76.2995 53.4429 77.6565 52.4493 78.8985C52.5071 79.048 52.5648 79.1975 52.6226 79.3585C53.5353 79.1975 54.4479 79.071 55.3491 78.8525C57.9484 78.22 60.0279 78.841 61.1947 80.6465C62.1536 82.1185 61.7262 83.5099 60.0048 83.7744C58.2488 84.0504 56.435 83.9584 54.6443 84.0389C53.0039 84.1079 51.3518 84.1769 49.7113 84.3034C49.3532 84.3264 48.9257 84.4874 48.6831 84.7404C44.2931 88.9954 39.9146 93.2733 35.5593 97.5513C35.3513 97.7583 35.2704 98.0918 35.2242 98.1722C37.7658 98.1722 40.3998 98.5402 42.8721 98.0802C46.5228 97.4018 49.9655 97.9308 53.4082 98.8852C56.331 99.7017 56.4466 99.5982 57.8906 96.8958C59.1037 94.6303 60.5709 92.4913 62.0381 90.3753C64.0251 87.5119 65.2266 84.4874 65.2151 80.9225C65.2151 78.8295 65.4808 76.5985 66.2433 74.6665C67.387 71.7571 69.0621 69.0431 70.5409 66.2601C71.9965 63.5117 73.8565 60.9127 74.8731 58.0263C76.3865 53.7483 79.2169 51.3678 83.4452 50.1603C85.6056 49.5394 87.6966 49.1484 89.8685 49.8499C91.821 50.4823 93.2535 51.9083 94.0275 53.6793C95.021 55.9563 95.8297 58.3712 96.2456 60.8092C96.7309 63.7417 95.668 66.4901 93.8889 68.8246C92.2368 70.9981 90.1574 72.8611 88.5515 75.069C87.2461 76.863 86.4027 78.979 85.2821 80.911C84.7507 81.831 84.1731 82.7624 83.4337 83.5099C81.9549 84.9934 80.2682 84.4414 79.7946 82.3944C79.1014 79.393 80.0718 76.679 81.5506 74.2065C83.2373 71.3891 85.2706 68.7901 87.1074 66.0532C88.771 63.5692 88.9212 60.8322 88.1703 58.0263C87.9508 57.1983 87.3847 57.0258 86.4374 57.0833C84.1731 57.2213 82.5903 58.2332 81.5275 60.1422C79.3209 64.1097 75.832 67.0191 72.9785 70.4461C71.6615 72.0331 70.3445 73.6776 69.3971 75.4945C68.8657 76.518 68.6231 78.128 69.0621 79.117C71.0376 83.6249 70.3907 87.8684 68.496 92.1578C67.9415 93.3998 67.5834 94.7568 67.3292 96.0908C67.2021 96.7348 67.5256 97.4593 67.618 98.0342C70.2058 95.9873 72.5279 94.0208 75.0002 92.2498C76.0862 91.4793 77.4147 90.9158 78.7202 90.6168C79.4827 90.4443 80.4069 90.9618 81.2618 91.1688C80.9845 92.0658 80.9614 93.2043 80.3838 93.8023C77.6227 96.6543 74.6767 99.3337 71.8463 102.117C70.6448 103.301 69.2585 103.899 67.6758 103.37C65.8043 102.749 64.8454 101.151 64.9031 99.2992C64.9609 97.2408 65.3306 95.1708 65.8389 93.1698C66.4281 90.8698 67.3061 88.6389 68.0917 86.2814C67.7336 86.3044 67.5718 86.2699 67.5372 86.3274C65.5154 89.6279 63.4706 92.9168 61.4951 96.2518C60.8019 97.4248 60.3398 98.7472 59.6467 99.9317C59.3116 100.507 58.5029 101.415 58.2141 101.312C56.5852 100.737 55.5454 102.381 54.0898 102.197C52.6226 102.013 51.1323 101.921 49.6767 101.668C45.1365 100.886 40.6309 101.875 36.1022 101.921C34.7737 101.933 33.4682 102.956 32.1166 103.382C31.0191 103.715 29.7945 103.934 29.032 102.692C28.2349 101.392 28.6161 100.024 29.4479 99.0232C31.0884 97.0568 32.9484 95.2743 34.739 93.4228C37.142 90.9388 39.5449 88.4664 41.9364 85.9709C42.179 85.7179 42.2945 85.3269 42.5255 84.9129C41.2085 84.9129 40.0186 85.0049 38.8633 84.8669C38.4705 84.8209 37.9738 84.2229 37.8698 83.7859C37.812 83.5329 38.3666 82.9694 38.7594 82.8084C39.8107 82.3599 40.9197 81.8195 42.0288 81.7505C43.7155 81.6585 44.3509 80.842 44.7899 79.3585C45.795 75.9315 48.429 73.6086 50.8204 71.1706C52.923 69.0316 55.1296 66.9961 57.2899 64.9147C57.1513 64.7997 57.0473 64.6617 56.9433 64.5237Z" fill="white"/>
<path d="M8.78015 86.7185C8.05233 87.075 7.48625 87.3625 6.49271 87.857C6.88551 87.121 7.02414 86.73 7.26675 86.4425C8.82636 84.614 9.90077 82.7625 9.56574 80.1291C9.11518 76.5296 10.825 73.3327 12.1998 70.1242C13.4474 67.2262 14.8684 64.3858 15.9197 61.4073C16.6938 59.2108 16.8902 56.8189 17.5371 54.5649C18.831 50.0569 21.4766 46.3655 24.9308 43.2375C26.5251 41.7886 28.2118 40.4316 29.9332 39.1321C32.1051 37.4876 36.0445 38.0626 37.6157 40.3166C38.4937 41.5701 38.6208 43.088 37.9276 44.491C37.0034 46.354 35.7673 48.0675 35.0164 49.9879C33.8495 52.9779 32.9022 56.0599 32.0011 59.1418C30.8112 63.2243 28.2349 66.3292 25.2197 69.1582C22.9207 71.3202 20.5177 73.3672 18.2649 75.5866C17.0981 76.7251 16.0121 78.0131 15.1804 79.4046C14.6605 80.2786 14.6374 81.463 14.4756 82.521C14.233 84.0965 14.0482 85.672 13.8056 87.5465C14.4063 86.5 14.9493 85.6375 15.3999 84.7405C16.9133 81.716 18.0108 78.4041 19.9863 75.7131C21.9965 72.9877 24.8153 70.8487 27.3338 68.5027C28.2349 67.6632 29.6443 67.8472 30.0949 69.0432C30.5917 70.3542 30.7881 71.8607 30.7419 73.2752C30.6494 76.2651 30.5686 79.3011 30.0025 82.2335C29.5635 84.453 28.5468 86.6035 27.4724 88.6275C26.3172 90.8009 24.7922 92.7789 23.66 95.0674C24.7113 94.3199 25.7742 93.5724 26.8255 92.8249C26.9526 92.8939 27.0796 92.9744 27.2067 93.0434C25.0348 96.4474 22.9207 99.8858 20.6448 103.221C19.7783 104.486 18.5769 105.636 16.74 104.934C15.3883 104.405 14.6027 102.588 14.8107 100.633C15.1457 97.6548 16.5551 95.1134 18.3342 92.8134C21.3611 88.892 23.2441 84.614 23.3712 79.5886C23.4174 77.6221 23.972 75.6786 24.3185 73.6087C24.0066 73.8616 23.4868 74.1261 23.1864 74.5286C21.4881 76.8056 19.8476 79.1056 18.1725 81.4055C18.0801 81.5435 17.953 81.647 17.8606 81.7965C14.6605 86.8795 11.3564 91.8934 8.3296 97.0799C6.96638 99.4143 6.15769 102.082 5.1295 104.601C4.7367 105.555 4.08975 106.487 3.09622 105.923C2.35684 105.509 1.58281 104.348 1.59437 103.531C1.67524 99.7248 3.05001 96.3094 5.22192 93.1814C6.43495 91.4334 7.4747 89.582 8.5722 87.7535C8.72239 87.512 8.69928 87.167 8.78015 86.7185ZM18.1956 69.2732C18.3458 69.3767 18.4844 69.4802 18.6346 69.5837C20.3098 67.6172 22.1235 65.7542 23.6023 63.6613C24.5265 62.3618 25.2543 60.7748 25.5316 59.2223C26.3865 54.4959 27.7728 50.0339 30.6725 46.1355C30.9614 45.7445 31.1346 45.25 31.5737 44.4105C30.8112 44.951 30.4761 45.227 30.1065 45.4455C26.2247 47.688 24.0297 51.1839 22.8976 55.3814C21.6961 59.8203 21.1647 64.4778 18.4267 68.3992C18.2649 68.6177 18.2649 68.9742 18.1956 69.2732Z" fill="white"/>
<path d="M61.0792 53.7254C56.7932 53.1849 52.484 52.7364 48.2211 52.0579C45.2058 51.5749 42.9646 49.6199 42.4216 46.7334C41.8093 43.5135 43.2303 40.765 46.0954 38.856C47.8629 37.6831 49.5959 36.4641 51.2132 35.1071C53.2119 33.4281 55.5339 33.1061 57.9831 33.1061C60.9753 33.1061 64.0945 32.5656 66.9249 33.2441C70.1943 34.0261 73.5677 35.2681 75.8205 38.1316C77.4494 40.19 76.687 42.444 75.5663 44.284C72.528 49.3324 67.699 51.9544 62.1074 53.3459C61.7955 53.4264 61.4489 53.3574 61.1139 53.3574C61.1024 53.4839 61.0908 53.5989 61.0792 53.7254ZM48.741 40.397C47.8976 41.455 46.8348 42.3635 46.3611 43.5135C45.8643 44.7095 47.3315 46.6759 49.0875 46.8254C53.2812 47.1934 57.5441 47.5844 61.7146 47.2394C65.0649 46.6184 67.7683 45.1005 68.7502 44.3875C70.7604 43.226 70.564 41.777 68.577 40.535C68.0224 40.19 67.4563 39.868 66.8903 39.523C64.649 41.662 61.8879 42.5475 59.0229 43.203C55.2798 44.054 51.814 43.801 48.741 40.397ZM64.0598 38.0166C63.5977 37.7866 63.3782 37.5796 63.1472 37.5566C60.6402 37.3841 58.1333 37.1426 55.6264 37.1311C54.6906 37.1196 53.6971 37.5451 52.8306 37.9706C52.3223 38.2235 52.0104 38.879 51.606 39.3505C52.0797 39.6495 52.5187 40.098 53.0386 40.2245C56.9318 41.202 60.5363 40.581 64.0598 38.0166Z" fill="white"/>
<path d="M100.128 76.38C100.798 76.2305 101.456 76.035 102.138 75.9545C103.917 75.7475 105.708 75.4025 107.475 75.4715C109.589 75.552 110.537 77.5185 109.185 79.094C106.297 82.4519 103.27 85.6949 100.162 88.8458C98.3948 90.6398 96.3731 92.1578 94.4669 93.8023C94.3513 93.6873 94.2358 93.5838 94.1318 93.4688C95.0561 92.5603 96.0034 91.6748 96.8929 90.7433C99.0186 88.5238 101.225 86.3619 103.178 83.9814C104.09 82.8774 104.495 81.3479 105.28 79.6575C102.727 80.1174 100.694 80.3819 98.7067 80.8649C97.3319 81.1984 96.2344 80.5889 95.7146 79.6689C95.2293 78.8065 95.0098 77.2425 95.4951 76.518C96.5579 74.908 98.0251 73.5165 99.5038 72.24C101.907 70.1816 104.472 68.2956 106.955 66.3291C107.244 66.0991 107.452 65.7771 107.949 65.2021C105.95 64.9606 104.229 64.6156 102.496 64.5581C100.544 64.5006 98.776 63.7071 98.1868 62.0857C97.5052 60.2112 98.2331 58.5437 99.3999 57.1062C101.329 54.7143 103.293 52.3453 105.338 50.0453C107.348 47.8028 109.485 45.6639 112.385 44.5829C113.067 44.3299 114.106 44.2839 114.661 44.6404C115.077 44.9164 115.054 45.9744 115.088 46.6874C115.181 48.5733 113.887 49.8153 112.709 50.9653C111.022 52.6098 110.075 54.5993 109.289 56.7267C109.116 57.1982 108.711 57.5892 108.191 58.3137C108.989 58.3137 109.485 58.2792 109.971 58.3252C111.588 58.4747 113.309 58.3482 114.788 58.8887C116.613 59.5557 116.948 61.2577 115.551 62.5802C112.974 65.0066 110.202 67.2261 107.498 69.5261C104.968 71.6766 102.415 73.8155 99.8735 75.9545C99.9544 76.0925 100.047 76.242 100.128 76.38Z" fill="white"/>
<path d="M12.1997 115.618C14.7413 114.824 17.2945 114.031 19.836 113.226C23.6022 112.03 27.3338 110.742 31.123 109.638C36.8185 107.97 42.6989 107.568 48.5907 107.28C50.8204 107.165 53.0385 106.51 55.2451 106.567C58.2141 106.636 61.1832 107.154 64.1522 107.464C64.9725 107.556 65.7927 107.602 66.613 107.66C68.7733 107.809 69.8708 108.879 69.9055 110.914C69.9401 112.605 68.4614 114.077 66.7631 114.468C63.8403 115.158 61.137 113.996 58.3297 113.766C55.453 113.525 52.5418 113.663 49.642 113.571C46.4188 113.467 43.1956 113.249 39.984 113.18C38.2973 113.145 36.599 113.318 34.9123 113.364C30.1873 113.49 25.4969 113.594 20.8642 114.974C18.1378 115.79 15.1341 115.675 12.2575 115.974C12.2459 115.848 12.2228 115.733 12.1997 115.618Z" fill="white"/>
<path d="M80.788 106.889C80.118 104.555 81.2039 102.818 83.8842 102.519C87.4077 102.117 91.9364 103.336 93.7848 107.05C94.8939 109.27 94.2816 112.283 92.4794 114.387C89.0598 118.4 82.8444 118.918 78.4544 116.71C76.0861 115.514 75.4045 113.295 76.5713 110.88C77.7728 108.407 78.6739 107.545 80.788 106.889ZM81.2963 107.614C80.7534 108.419 79.9447 109.27 79.5981 110.27C79.3208 111.052 79.2746 112.513 79.7252 112.835C81.7238 114.284 85.2243 113.755 86.8416 111.949C87.3038 111.432 87.8698 110.535 87.7081 110.029C87.5348 109.477 86.6221 109.017 85.9405 108.798C84.4618 108.315 82.9253 108.016 81.2963 107.614Z" fill="white"/>
<path d="M59.7622 23.5498C60.2474 22.3538 60.6518 21.1118 61.2525 19.9618C62.685 17.2133 63.3898 14.5569 62.2345 11.3944C60.5709 6.86347 63.332 1.84954 68.0108 0.182059C69.4434 -0.323934 70.2059 0.239559 69.9401 1.68854C69.8131 2.37853 69.7091 3.20652 69.2701 3.68952C67.3061 5.85149 67.1791 8.40445 67.5141 11.0609C67.93 14.3154 66.8671 17.0178 64.6375 19.3638C63.1934 20.8818 61.807 22.4688 60.3976 24.0328L59.7622 23.5498Z" fill="white"/>
<path d="M69.2007 23.4348C70.8065 21.1234 72.5048 18.8809 73.9835 16.4889C75.0926 14.6949 75.9128 12.74 76.837 10.8425C77.6573 9.14051 78.9858 8.42752 80.1873 9.08301C81.5274 9.819 82.4517 12.7515 81.5852 13.844C78.5353 17.6964 75.1157 21.1464 70.7372 23.5268C70.5408 23.6303 70.3444 23.7338 70.1365 23.7913C69.9863 23.8373 69.813 23.8028 69.6628 23.8028C69.5126 23.6763 69.3509 23.5613 69.2007 23.4348Z" fill="white"/>
<path d="M49.8843 28.5752C50.0229 26.2637 49.7803 23.8488 50.381 21.6638C51.259 18.5128 51.3053 15.4424 50.9125 12.2684C50.8316 11.6474 51.028 10.5664 51.3977 10.4054C51.9869 10.1524 52.9342 10.3134 53.558 10.6354C55.9725 11.9004 56.8968 14.3499 55.8339 16.8799C54.8057 19.3293 53.5811 21.6983 52.4374 24.0903C51.7212 25.5852 51.0049 27.0802 50.2886 28.5752C50.1615 28.5867 50.0229 28.5867 49.8843 28.5752Z" fill="white"/>
</g>
<defs>
<clipPath id="clip0">
<rect width="118" height="118" fill="white"/>
</clipPath>
</defs>
</svg>
